<?xml version="1.0" encoding="UTF-8"?>
<svg id="Warstwa_1" xmlns="http://www.w3.org/2000/svg" version="1.1" viewBox="0 0 425.2 283.46">
  <!-- Generator: Adobe Illustrator 29.8.2, SVG Export Plug-In . SVG Version: 2.1.1 Build 3)  -->
  <defs>
    <style>
      .st0 {
        fill: #584b3d;
      }
    </style>
  </defs>
  <path class="st0" d="M295.52,41.61c.4.4.62,1.48.61,2.06-.05,2.34-4.93,10.31-6.24,13.15-6.63,14.42-14.44,32.55-18.61,47.76-5.52,20.18,3.56,15.58,11.66,3.43,6.35-9.52,9.9-20.62,14.47-31.02,1.03-1.68,4.06-2.15,5.64-1.14,2.6,1.65-2.59,11.1-3.06,13.6,5.74-6.16,12.04-15.9,21.82-13.83,6.06,1.28,5.24,7.04,3.87,11.67-2.48,8.33-10.48,18.82-12.01,26.74-.68,3.5.76,4.75,4.12,3.63,5.5-1.83,15.48-16.17,18.24-21.48,2.65-5.12,6.16-17.05,10.51-20.02,1.61-1.1,5.81-2.79,7.28-1.04l.23,1.73c-3.12,7.31-6.75,14.45-9.71,21.82-1.24,3.08-7.44,16.97-4.15,19.14,1.23.51,2.56.3,3.76-.15,4.93-1.87,16.09-18.98,18.47-24.16,1.87-4.06,4.12-13.93,6.66-16.6,1.66-1.75,6.48-3.62,8.4-1.68l-16.91,49.38c-.15.98.04.61.7.7,3.1.43,6.98-1.2,10.43,0-.77,7.54-7.55,3.65-12.6,4.09-4.62,8.91-12.59,26.35-23.24,29.1-6.37,1.65-9.98-2.61-9.23-8.75,1.07-8.81,16.12-20.32,24.47-22.52l7.51-20.34c-5.46,5.91-13.97,20.37-23.73,16.23-4.65-1.97-4.46-8.18-3.88-12.35l-6.04,6.79c-5,5.28-17.68,9.89-19.1-.78-1.13-8.43,9.93-23.26,12.35-31.67.2-5.92-5.52-2.71-8.27-.49-6.15,4.98-12.39,13.78-16.01,20.81-1.92,3.73-5.49,14.82-8.01,16.69-1.3.97-5.59,2.28-6.2.45-.77-2.31.94-3.95,1.38-5.99-7.62,9.03-22.64,10.35-19.62-5.33l-6.53,7.03c-9.78,8.36-21.68,7.26-18.9-8-4.65,5.3-14.49,18.41-22.52,12.11-3.49-2.74-3.14-8.25-2.19-12.11-3.69,3.97-8.92,12.21-14.5,13.35-8.94,1.83-11.75-5.23-10.44-12.87-3.65,5.64-15.83,17.52-22.77,11.64-4.13-3.5-1.58-10.74.01-15.01,1.32-3.56,9.61-19.7,8.91-21.98s-4.16.88-5.05,1.61c-5.4,4.42-12.37,14.35-15.82,20.52-1.82,3.25-5.85,14.09-8.29,15.44-1.32.73-6.05,1.7-6.59.07-.66-2.01,2.66-7.93,2.85-10.35-6.54,6.22-13.92,12.96-23.76,11.41-17.26-2.72-9.67-25.36-2.8-34.82,4.26-5.86,13.43-13.7,21.01-13.9,6.86-.18,9.27,7.07,6.71,12.56-2.2,4.72-10.33,5.89-8.8-.07.61-2.39,5.93-4.68,2.79-7.41-3.11-1.55-10.09,6.69-11.82,9.02-4.57,6.15-13.21,22.44-5.37,28.54,6.71,5.21,15.87-3.64,20.09-8.49,13.78-15.84,16.25-40.77,29.8-56.43,3.43-3.96,12.42-10,13.71-1.08.68,4.69-5.64,14.48-8.31,18.59-5.12,7.87-11.68,14.81-16.29,22.96-.09,1.44.55.37.89-.08,3.4-4.48,6.94-10.9,12.23-13.44,4.84-2.33,10.97-1.65,11.13,4.79.2,7.95-13.76,28.03-11.43,32.71,3.25,3.09,8.4-2.42,10.68-4.84,10.38-11.03,11.59-19.86,18.22-32.16,1.07-1.99,1.77-3.34,3.96-4.27,2.53-1.07,6.74-1.83,6.45,2.04-3.33,8.55-7.96,16.61-11.19,25.19-1.04,2.77-5.21,13.01-1.71,14.78,3.46.97,7.6-3.83,9.68-6.32,8.06-9.65,12.14-23.65,18.21-34.6,1.78-2.32,6.64-4.7,9.19-2.45.41.67.28,1.35.13,2.07-1.18,5.9-8.02,17.06-10.64,23.29-1.56,3.72-6.14,13.92-3.54,17.27,2.9,3.75,9.41-3.81,11.36-6.06,8.6-9.87,12.56-23.36,22.82-31.44,5.66-4.46,14.63-7.73,19.33-.28,1.72-5.71,3.83-11.43,6.07-16.95,2.06-5.08,6.55-17.35,10.65-20.35,1.54-1.13,4.88-2.39,6.42-.86ZM162.9,78.8c4.06-5.14,8.03-10.88,11.22-16.63,1.22-2.2,3.34-5.88,3.93-8.2s-1.41-1.3-2.55-.11c-1.44,1.49-3.82,6.1-4.94,8.14-2.93,5.37-5.43,11.1-7.66,16.8ZM265.48,79.37c-5.43,1.07-14.1,13.92-16.6,18.79-1.97,3.84-9.7,20.89.38,18.8,7.74-1.61,18.4-23.44,19.57-30.72-.34-2.71,1.35-7.79-3.35-6.87ZM348.93,132.09c-5.05,1.99-10.48,5.79-14.03,9.94-2.95,3.45-5.8,7.44-3.92,12.13,2.14,1.51,6-2.87,7.29-4.4,1.11-1.32,11.46-17.01,10.67-17.67Z"/>
  <path class="st0" d="M334.88,174.23c.68.14.62.09,1-.31,2.23-2.33,3.43-4.95,7.59-3.45l.53,1.56c-2.63,10.3-7.78,20.34-9.86,30.78-.62,3.13-1.82,8.55,2.66,9.48,3.45.72,10.11-7.63,12.03-10.29,1.85-2.57,3.67-5.26,4.91-8.18l1.97.02c2.92,1.48-1.99,7.67-3.21,9.4-3.25,4.63-7.6,9.18-12.14,12.57-4.4,3.28-22.66,12.15-18.11,19.73,2.25,3.75,8.95-2.59,9.26.94.44,5.16-15.28,6.51-16.46-1-1.34-8.53,7.65-14.32,14.02-18.14-4.65-4.41-4.31-9.67-2.91-15.49l-5.82,7.98c-6.74,9.14-22.72,13.84-20.82-3.13-4.89,6.02-8.75,12.27-17.62,11.57-6.66-.53-9.01-4.85-16.88-2.71-1.63.44-5.44,2.96-6.62,2.22-2.17-4.75,3.06-9.96,5.99-13.51,7.61-9.24,16.51-17.5,23.98-26.88l-10.41.25c-1.64.15-5.53.99-6.81,1.91-1.77,1.28-2.27,4.74-5.56,3.89-.59-5.21,5.43-12.33,10.46-13.04s8.86,1.82,14.02,1.43c3.52-.27,10.09-4.3,8.73,1.94-8.45,12.3-19.23,22.83-28.37,34.62,5.49-.42,13.65,3.72,18.76,1.8,1.68-.63,5.37-4.42,6.68-5.91,8.51-9.68,10.95-23.18,22.36-30.93,4.78-3.25,14.38-6.7,16.64.89ZM329.43,173.84c-5.35.5-13.43,12.47-15.95,17.02-2.15,3.88-7.66,15.7-5.96,19.69,1.75,4.11,8.48-2.04,10.17-3.86,3.6-3.86,14.87-21.4,15.02-26.12.03-.88-.62-1.41-.71-2.26-.17-1.61.97-4.81-2.57-4.48Z"/>
  <path class="st0" d="M171.72,193.71c-2.14,5.5-3.57,11.33-5.69,16.84-2.61,6.79-4.72,10.68-13.1,8.77l-.21-1.2c2.95-7.67,6.22-15.22,9.09-22.93,4.77-12.86,8.6-27.6,13.8-39.97,2.07-4.92,4.76-8.33,10.52-8.58,1.21,2.87.09,5.42-.72,8.2-3.26,11.22-8.22,22.11-11.84,33.21-.34,1.03-.1.51.48.48,15.82-.76,30.79-6.6,35.5-23.13,9.38-32.87-34.08-27.6-50.68-16.28-9.33,6.36-17.49,22.01-9.52,32.14.02,1.7-3.99,1.34-5.07,1.17-3.31-.53-5.68-5.49-6.03-8.5-1.52-12.97,8.92-25.36,19.8-30.96,15.71-8.09,57.39-14.13,61.9,9.82,4.03,21.41-15.61,38.53-35.55,40.27-4.21.37-8.55-.48-12.67.65Z"/>
  <path class="st0" d="M63.1,102.53c-6.19,2.42-11.53,10.18-12.1,16.73-2.04,23.27,27.02,18.79,34.32.89,9.57-23.49-23.1-31.62-16.27-54.54,4.26-14.26,20.47-23.73,34.96-19.25,7.26,2.25,7.65,10.9,5.49,17.06-1.17,3.33-6.31,12.55-9.48,6.4,11.71-15.69-2.22-22.94-15.35-11.85-16.6,14.02,2.95,26.01,9.13,38.32,11.64,23.19-10.17,48.2-34.33,45.96-19.71-1.83-25.09-25.08-10.91-37.06,3.41-2.88,11.05-7.1,14.54-2.66Z"/>
  <path class="st0" d="M239.44,222.19h7.51c3.75,0,8.69,8.4,2.5,8.67-2.59-4.31-6.68-4.85-11.4-4.73-5.9,14.26-13.15,35.53-26.55,44.42-5.59,3.7-15.36,4.44-17.01-3.66-3.54-17.45,19.67-40.34,35.79-44.03,1.61-4.44,3.28-8.87,5.05-13.25,1.2-2.97,3.69-7.3,4.49-10.05.14-.47.39-1.24-.38-1.1-3.73,7.02-16.73,25.62-26.14,18.62-4.42-3.29-2.43-10.75-1.24-15.23,1.44-5.44,8.5-24.67,11.64-28.56,1.91-2.37,8.97-4.21,8.98-.27-3.29,9.99-9.53,19.74-12.4,29.8-.75,2.62-3.18,10.66,1.41,10.18,4.61-.48,15.09-16.43,17.63-20.69,3.11-5.22,7.14-16.08,10.53-19.99,2.08-2.41,7.56-3.28,6.9,1.07l-17.34,48.81ZM228.29,228.01c-11.2,4.28-22.2,13.78-27.38,24.69-1.8,3.79-4.78,11.22-.68,14.27,4.89,3.64,10.76-4.16,13.44-7.81,6.48-8.83,11.19-20.8,14.62-31.16Z"/>
  <path class="st0" d="M98.46,189.73c5.22-.54,10.39,1.87,15.51.25,1.52-.48,5.79-4.16,6.31-.96.37,2.23-2.39,4.62-4.2,5.5-7.73,3.77-13.97-1.85-21.01.31-2.01.62-6.73,4.57-6.75.48-.02-3.02,24.76-27.21,27.57-31.97l-5.62,1.64c-4.87-.11-9.35.24-13.5,2.96-2.75-3.15,3.1-7.16,5.92-7.64,2.99-.51,6.51.15,9.57-.12,2.02-.18,9.66-2.78,10.45-2.21,2.29,1.65-2.78,7.76-3.92,9.23-6.2,7.96-13.51,15.14-20.33,22.54Z"/>
  <path class="st0" d="M363.33,50.34c3.68,3.91-5.67,16.05-10.8,11.53s6.02-16.59,10.8-11.53Z"/>
  <path class="st0" d="M380.32,49.83c8.02-.74,3.45,12.12-2.6,12.96-8.61,1.19-4.62-12.3,2.6-12.96Z"/>
</svg>